<svg width="1000" height="1000" viewBox="0 0 1000 1000" fill="none" xmlns="http://www.w3.org/2000/svg">
  <path d="M500 50C748.528 50 950 251.472 950 500C950 748.528 748.528 950 500 950C251.472 950 50 748.528 50 500C50 251.472 251.472 50 500 50Z" fill="#d4af37"/>
  <path d="M500 100C721.127 100 900 278.873 900 500C900 721.127 721.127 900 500 900C278.873 900 100 721.127 100 500C100 278.873 278.873 100 500 100Z" fill="white"/>
  <path d="M500 150C693.726 150 850 306.274 850 500C850 693.726 693.726 850 500 850C306.274 850 150 693.726 150 500C150 306.274 306.274 150 500 150Z" fill="#d4af37"/>
  <path d="M500 200C666.325 200 800 333.675 800 500C800 666.325 666.325 800 500 800C333.675 800 200 666.325 200 500C200 333.675 333.675 200 500 200Z" fill="white"/>
  <path d="M500 250C638.924 250 750 361.076 750 500C750 638.924 638.924 750 500 750C361.076 750 250 638.924 250 500C250 361.076 361.076 250 500 250Z" fill="#d4af37"/>
</svg>